<svg xmlns="http://www.w3.org/2000/svg" width="680" height="340" viewBox="0 0 680 340" style="font-family: GT America, ui-sans-serif, system-ui, -apple-system, Segoe UI, Roboto, Helvetica Neue, Arial, sans-serif;"><g transform="translate(12,32)"><g transform="translate(0,0)"><rect width="149" height="252" fill="#f7f3ef" rx="4" stroke="#b8b1aa" stroke-width="0.4"></rect><text x="74.5" y="-12" text-anchor="middle" fill="#494949" font-size="11px" font-weight="bold">DP = 1</text><rect x="10" y="6" width="12.12406015037594" height="9.15" fill="#FF9101" rx="1" opacity="0.85"></rect><rect x="22.12406015037594" y="6" width="4.000939849624061" height="9.15" fill="#b8b1aa" rx="1" opacity="0.6"></rect><rect x="10" y="18.15" width="12.12406015037594" height="9.15" fill="#FF9101" rx="1" opacity="0.85"></rect><rect x="22.12406015037594" y="18.15" width="4.000939849624061" height="9.15" fill="#b8b1aa" rx="1" opacity="0.6"></rect><rect x="10" y="30.3" width="12.12406015037594" height="9.15" fill="#FF9101" rx="1" opacity="0.85"></rect><rect x="22.12406015037594" y="30.3" width="4.000939849624061" height="9.15" fill="#b8b1aa" rx="1" opacity="0.6"></rect><rect x="10" y="42.45" width="12.12406015037594" height="9.15" fill="#FF9101" rx="1" opacity="0.85"></rect><rect x="22.12406015037594" y="42.45" width="4.000939849624061" height="9.15" fill="#b8b1aa" rx="1" opacity="0.6"></rect><rect x="10" y="54.6" width="12.12406015037594" height="9.15" fill="#FF9101" rx="1" opacity="0.85"></rect><rect x="22.12406015037594" y="54.6" width="4.000939849624061" height="9.15" fill="#b8b1aa" rx="1" opacity="0.6"></rect><rect x="10" y="66.75" width="12.12406015037594" height="9.15" fill="#FF9101" rx="1" opacity="0.85"></rect><rect x="22.12406015037594" y="66.75" width="4.000939849624061" height="9.15" fill="#b8b1aa" rx="1" opacity="0.6"></rect><rect x="10" y="78.9" width="12.12406015037594" height="9.15" fill="#FF9101" rx="1" opacity="0.85"></rect><rect x="22.12406015037594" y="78.9" width="4.000939849624061" height="9.15" fill="#b8b1aa" rx="1" opacity="0.6"></rect><rect x="10" y="91.05" width="12.12406015037594" height="9.15" fill="#FF9101" rx="1" opacity="0.85"></rect><rect x="22.12406015037594" y="91.05" width="4.000939849624061" height="9.15" fill="#b8b1aa" rx="1" opacity="0.6"></rect><rect x="10" y="103.2" width="12.12406015037594" height="9.15" fill="#FF9101" rx="1" opacity="0.85"></rect><rect x="22.12406015037594" y="103.2" width="4.000939849624061" height="9.15" fill="#b8b1aa" rx="1" opacity="0.6"></rect><rect x="10" y="115.35000000000001" width="12.12406015037594" height="9.15" fill="#FF9101" rx="1" opacity="0.85"></rect><rect x="22.12406015037594" y="115.35000000000001" width="4.000939849624061" height="9.15" fill="#b8b1aa" rx="1" opacity="0.6"></rect><rect x="10" y="127.5" width="12.12406015037594" height="9.15" fill="#FF9101" rx="1" opacity="0.85"></rect><rect x="22.12406015037594" y="127.5" width="4.000939849624061" height="9.15" fill="#b8b1aa" rx="1" opacity="0.6"></rect><rect x="10" y="139.65" width="12.12406015037594" height="9.15" fill="#FF9101" rx="1" opacity="0.85"></rect><rect x="22.12406015037594" y="139.65" width="4.000939849624061" height="9.15" fill="#b8b1aa" rx="1" opacity="0.6"></rect><rect x="10" y="151.8" width="12.12406015037594" height="9.15" fill="#FF9101" rx="1" opacity="0.85"></rect><rect x="22.12406015037594" y="151.8" width="4.000939849624061" height="9.15" fill="#b8b1aa" rx="1" opacity="0.6"></rect><rect x="10" y="163.95000000000002" width="12.12406015037594" height="9.15" fill="#FF9101" rx="1" opacity="0.85"></rect><rect x="22.12406015037594" y="163.95000000000002" width="4.000939849624061" height="9.15" fill="#b8b1aa" rx="1" opacity="0.6"></rect><rect x="10" y="176.1" width="12.12406015037594" height="9.15" fill="#FF9101" rx="1" opacity="0.85"></rect><rect x="22.12406015037594" y="176.1" width="4.000939849624061" height="9.15" fill="#b8b1aa" rx="1" opacity="0.6"></rect><rect x="10" y="188.25" width="12.12406015037594" height="9.15" fill="#FF9101" rx="1" opacity="0.85"></rect><rect x="22.12406015037594" y="188.25" width="4.000939849624061" height="9.15" fill="#b8b1aa" rx="1" opacity="0.6"></rect><rect x="10" y="200.4" width="12.12406015037594" height="9.15" fill="#FF9101" rx="1" opacity="0.85"></rect><rect x="22.12406015037594" y="200.4" width="4.000939849624061" height="9.15" fill="#b8b1aa" rx="1" opacity="0.6"></rect><rect x="10" y="212.55" width="12.12406015037594" height="9.15" fill="#FF9101" rx="1" opacity="0.85"></rect><rect x="22.12406015037594" y="212.55" width="4.000939849624061" height="9.15" fill="#b8b1aa" rx="1" opacity="0.6"></rect><rect x="10" y="224.70000000000002" width="12.12406015037594" height="9.15" fill="#FF9101" rx="1" opacity="0.85"></rect><rect x="22.12406015037594" y="224.70000000000002" width="4.000939849624061" height="9.15" fill="#b8b1aa" rx="1" opacity="0.6"></rect><rect x="10" y="236.85" width="12.12406015037594" height="9.15" fill="#FF9101" rx="1" opacity="0.85"></rect><rect x="22.12406015037594" y="236.85" width="4.000939849624061" height="9.15" fill="#b8b1aa" rx="1" opacity="0.6"></rect><text x="74.5" y="250" text-anchor="middle" fill="#7c7c7c" font-size="7.5px" font-style="italic">64 experts total</text><text x="74.5" y="268" text-anchor="middle" fill="#494949" font-size="8px">mu = 384  ·  1.33x pad</text><text x="74.5" y="282" text-anchor="middle" fill="#494949" font-size="8px">905 TFLOPS  (36.2% MFU)</text></g><g transform="translate(169,0)"><rect width="149" height="252" fill="#f7f3ef" rx="4" stroke="#b8b1aa" stroke-width="0.4"></rect><text x="74.5" y="-12" text-anchor="middle" fill="#494949" font-size="11px" font-weight="bold">DP = 2</text><rect x="10" y="6" width="27.564102564102566" height="9.15" fill="#FF9101" rx="1" opacity="0.85"></rect><rect x="37.56410256410257" y="6" width="4.685897435897434" height="9.15" fill="#b8b1aa" rx="1" opacity="0.6"></rect><rect x="10" y="18.15" width="27.564102564102566" height="9.15" fill="#FF9101" rx="1" opacity="0.85"></rect><rect x="37.56410256410257" y="18.15" width="4.685897435897434" height="9.15" fill="#b8b1aa" rx="1" opacity="0.6"></rect><rect x="10" y="30.3" width="27.564102564102566" height="9.15" fill="#FF9101" rx="1" opacity="0.85"></rect><rect x="37.56410256410257" y="30.3" width="4.685897435897434" height="9.15" fill="#b8b1aa" rx="1" opacity="0.6"></rect><rect x="10" y="42.45" width="27.564102564102566" height="9.15" fill="#FF9101" rx="1" opacity="0.85"></rect><rect x="37.56410256410257" y="42.45" width="4.685897435897434" height="9.15" fill="#b8b1aa" rx="1" opacity="0.6"></rect><rect x="10" y="54.6" width="27.564102564102566" height="9.15" fill="#FF9101" rx="1" opacity="0.85"></rect><rect x="37.56410256410257" y="54.6" width="4.685897435897434" height="9.15" fill="#b8b1aa" rx="1" opacity="0.6"></rect><rect x="10" y="66.75" width="27.564102564102566" height="9.15" fill="#FF9101" rx="1" opacity="0.85"></rect><rect x="37.56410256410257" y="66.75" width="4.685897435897434" height="9.15" fill="#b8b1aa" rx="1" opacity="0.6"></rect><rect x="10" y="78.9" width="27.564102564102566" height="9.15" fill="#FF9101" rx="1" opacity="0.85"></rect><rect x="37.56410256410257" y="78.9" width="4.685897435897434" height="9.15" fill="#b8b1aa" rx="1" opacity="0.6"></rect><rect x="10" y="91.05" width="27.564102564102566" height="9.15" fill="#FF9101" rx="1" opacity="0.85"></rect><rect x="37.56410256410257" y="91.05" width="4.685897435897434" height="9.15" fill="#b8b1aa" rx="1" opacity="0.6"></rect><rect x="10" y="103.2" width="27.564102564102566" height="9.15" fill="#FF9101" rx="1" opacity="0.85"></rect><rect x="37.56410256410257" y="103.2" width="4.685897435897434" height="9.15" fill="#b8b1aa" rx="1" opacity="0.6"></rect><rect x="10" y="115.35000000000001" width="27.564102564102566" height="9.15" fill="#FF9101" rx="1" opacity="0.85"></rect><rect x="37.56410256410257" y="115.35000000000001" width="4.685897435897434" height="9.15" fill="#b8b1aa" rx="1" opacity="0.6"></rect><rect x="10" y="127.5" width="27.564102564102566" height="9.15" fill="#FF9101" rx="1" opacity="0.85"></rect><rect x="37.56410256410257" y="127.5" width="4.685897435897434" height="9.15" fill="#b8b1aa" rx="1" opacity="0.6"></rect><rect x="10" y="139.65" width="27.564102564102566" height="9.15" fill="#FF9101" rx="1" opacity="0.85"></rect><rect x="37.56410256410257" y="139.65" width="4.685897435897434" height="9.15" fill="#b8b1aa" rx="1" opacity="0.6"></rect><rect x="10" y="151.8" width="27.564102564102566" height="9.15" fill="#FF9101" rx="1" opacity="0.85"></rect><rect x="37.56410256410257" y="151.8" width="4.685897435897434" height="9.15" fill="#b8b1aa" rx="1" opacity="0.6"></rect><rect x="10" y="163.95000000000002" width="27.564102564102566" height="9.15" fill="#FF9101" rx="1" opacity="0.85"></rect><rect x="37.56410256410257" y="163.95000000000002" width="4.685897435897434" height="9.15" fill="#b8b1aa" rx="1" opacity="0.6"></rect><rect x="10" y="176.1" width="27.564102564102566" height="9.15" fill="#FF9101" rx="1" opacity="0.85"></rect><rect x="37.56410256410257" y="176.1" width="4.685897435897434" height="9.15" fill="#b8b1aa" rx="1" opacity="0.6"></rect><rect x="10" y="188.25" width="27.564102564102566" height="9.15" fill="#FF9101" rx="1" opacity="0.85"></rect><rect x="37.56410256410257" y="188.25" width="4.685897435897434" height="9.15" fill="#b8b1aa" rx="1" opacity="0.6"></rect><rect x="10" y="200.4" width="27.564102564102566" height="9.15" fill="#FF9101" rx="1" opacity="0.85"></rect><rect x="37.56410256410257" y="200.4" width="4.685897435897434" height="9.15" fill="#b8b1aa" rx="1" opacity="0.6"></rect><rect x="10" y="212.55" width="27.564102564102566" height="9.15" fill="#FF9101" rx="1" opacity="0.85"></rect><rect x="37.56410256410257" y="212.55" width="4.685897435897434" height="9.15" fill="#b8b1aa" rx="1" opacity="0.6"></rect><rect x="10" y="224.70000000000002" width="27.564102564102566" height="9.15" fill="#FF9101" rx="1" opacity="0.85"></rect><rect x="37.56410256410257" y="224.70000000000002" width="4.685897435897434" height="9.15" fill="#b8b1aa" rx="1" opacity="0.6"></rect><rect x="10" y="236.85" width="27.564102564102566" height="9.15" fill="#FF9101" rx="1" opacity="0.85"></rect><rect x="37.56410256410257" y="236.85" width="4.685897435897434" height="9.15" fill="#b8b1aa" rx="1" opacity="0.6"></rect><text x="74.5" y="250" text-anchor="middle" fill="#7c7c7c" font-size="7.5px" font-style="italic">32 experts total</text><text x="74.5" y="268" text-anchor="middle" fill="#494949" font-size="8px">mu = 768  ·  1.17x pad</text><text x="74.5" y="282" text-anchor="middle" fill="#494949" font-size="8px">1,091 TFLOPS  (43.7% MFU)</text></g><g transform="translate(338,0)"><rect width="149" height="252" fill="#f7f3ef" rx="4" stroke="#b8b1aa" stroke-width="0.4"></rect><text x="74.5" y="-12" text-anchor="middle" fill="#494949" font-size="11px" font-weight="bold">DP = 4</text><rect x="10" y="6" width="59.1743119266055" height="12.1875" fill="#FF9101" rx="1" opacity="0.85"></rect><rect x="69.1743119266055" y="6" width="5.3256880733945025" height="12.1875" fill="#b8b1aa" rx="1" opacity="0.6"></rect><rect x="10" y="21.1875" width="59.1743119266055" height="12.1875" fill="#FF9101" rx="1" opacity="0.85"></rect><rect x="69.1743119266055" y="21.1875" width="5.3256880733945025" height="12.1875" fill="#b8b1aa" rx="1" opacity="0.6"></rect><rect x="10" y="36.375" width="59.1743119266055" height="12.1875" fill="#FF9101" rx="1" opacity="0.85"></rect><rect x="69.1743119266055" y="36.375" width="5.3256880733945025" height="12.1875" fill="#b8b1aa" rx="1" opacity="0.6"></rect><rect x="10" y="51.5625" width="59.1743119266055" height="12.1875" fill="#FF9101" rx="1" opacity="0.85"></rect><rect x="69.1743119266055" y="51.5625" width="5.3256880733945025" height="12.1875" fill="#b8b1aa" rx="1" opacity="0.6"></rect><rect x="10" y="66.75" width="59.1743119266055" height="12.1875" fill="#FF9101" rx="1" opacity="0.85"></rect><rect x="69.1743119266055" y="66.75" width="5.3256880733945025" height="12.1875" fill="#b8b1aa" rx="1" opacity="0.6"></rect><rect x="10" y="81.9375" width="59.1743119266055" height="12.1875" fill="#FF9101" rx="1" opacity="0.85"></rect><rect x="69.1743119266055" y="81.9375" width="5.3256880733945025" height="12.1875" fill="#b8b1aa" rx="1" opacity="0.6"></rect><rect x="10" y="97.125" width="59.1743119266055" height="12.1875" fill="#FF9101" rx="1" opacity="0.85"></rect><rect x="69.1743119266055" y="97.125" width="5.3256880733945025" height="12.1875" fill="#b8b1aa" rx="1" opacity="0.6"></rect><rect x="10" y="112.3125" width="59.1743119266055" height="12.1875" fill="#FF9101" rx="1" opacity="0.85"></rect><rect x="69.1743119266055" y="112.3125" width="5.3256880733945025" height="12.1875" fill="#b8b1aa" rx="1" opacity="0.6"></rect><rect x="10" y="127.5" width="59.1743119266055" height="12.1875" fill="#FF9101" rx="1" opacity="0.85"></rect><rect x="69.1743119266055" y="127.5" width="5.3256880733945025" height="12.1875" fill="#b8b1aa" rx="1" opacity="0.6"></rect><rect x="10" y="142.6875" width="59.1743119266055" height="12.1875" fill="#FF9101" rx="1" opacity="0.85"></rect><rect x="69.1743119266055" y="142.6875" width="5.3256880733945025" height="12.1875" fill="#b8b1aa" rx="1" opacity="0.6"></rect><rect x="10" y="157.875" width="59.1743119266055" height="12.1875" fill="#FF9101" rx="1" opacity="0.85"></rect><rect x="69.1743119266055" y="157.875" width="5.3256880733945025" height="12.1875" fill="#b8b1aa" rx="1" opacity="0.6"></rect><rect x="10" y="173.0625" width="59.1743119266055" height="12.1875" fill="#FF9101" rx="1" opacity="0.85"></rect><rect x="69.1743119266055" y="173.0625" width="5.3256880733945025" height="12.1875" fill="#b8b1aa" rx="1" opacity="0.6"></rect><rect x="10" y="188.25" width="59.1743119266055" height="12.1875" fill="#FF9101" rx="1" opacity="0.85"></rect><rect x="69.1743119266055" y="188.25" width="5.3256880733945025" height="12.1875" fill="#b8b1aa" rx="1" opacity="0.6"></rect><rect x="10" y="203.4375" width="59.1743119266055" height="12.1875" fill="#FF9101" rx="1" opacity="0.85"></rect><rect x="69.1743119266055" y="203.4375" width="5.3256880733945025" height="12.1875" fill="#b8b1aa" rx="1" opacity="0.6"></rect><rect x="10" y="218.625" width="59.1743119266055" height="12.1875" fill="#FF9101" rx="1" opacity="0.85"></rect><rect x="69.1743119266055" y="218.625" width="5.3256880733945025" height="12.1875" fill="#b8b1aa" rx="1" opacity="0.6"></rect><rect x="10" y="233.8125" width="59.1743119266055" height="12.1875" fill="#FF9101" rx="1" opacity="0.85"></rect><rect x="69.1743119266055" y="233.8125" width="5.3256880733945025" height="12.1875" fill="#b8b1aa" rx="1" opacity="0.6"></rect><text x="74.5" y="268" text-anchor="middle" fill="#494949" font-size="8px">mu = 1,536  ·  1.09x pad</text><text x="74.5" y="282" text-anchor="middle" fill="#494949" font-size="8px">1,178 TFLOPS  (47.1% MFU)</text></g><g transform="translate(507,0)"><rect width="149" height="252" fill="#f7f3ef" rx="4" stroke="#b8b1aa" stroke-width="0.4"></rect><text x="74.5" y="-12" text-anchor="middle" fill="#494949" font-size="11px" font-weight="bold">DP = 8</text><rect x="10" y="6" width="124.03846153846153" height="27.375" fill="#FF9101" rx="1" opacity="0.85"></rect><rect x="134.03846153846155" y="6" width="4.961538461538467" height="27.375" fill="#b8b1aa" rx="1" opacity="0.6"></rect><rect x="10" y="36.375" width="124.03846153846153" height="27.375" fill="#FF9101" rx="1" opacity="0.85"></rect><rect x="134.03846153846155" y="36.375" width="4.961538461538467" height="27.375" fill="#b8b1aa" rx="1" opacity="0.6"></rect><rect x="10" y="66.75" width="124.03846153846153" height="27.375" fill="#FF9101" rx="1" opacity="0.85"></rect><rect x="134.03846153846155" y="66.75" width="4.961538461538467" height="27.375" fill="#b8b1aa" rx="1" opacity="0.6"></rect><rect x="10" y="97.125" width="124.03846153846153" height="27.375" fill="#FF9101" rx="1" opacity="0.85"></rect><rect x="134.03846153846155" y="97.125" width="4.961538461538467" height="27.375" fill="#b8b1aa" rx="1" opacity="0.6"></rect><rect x="10" y="127.5" width="124.03846153846153" height="27.375" fill="#FF9101" rx="1" opacity="0.85"></rect><rect x="134.03846153846155" y="127.5" width="4.961538461538467" height="27.375" fill="#b8b1aa" rx="1" opacity="0.6"></rect><rect x="10" y="157.875" width="124.03846153846153" height="27.375" fill="#FF9101" rx="1" opacity="0.85"></rect><rect x="134.03846153846155" y="157.875" width="4.961538461538467" height="27.375" fill="#b8b1aa" rx="1" opacity="0.6"></rect><rect x="10" y="188.25" width="124.03846153846153" height="27.375" fill="#FF9101" rx="1" opacity="0.85"></rect><rect x="134.03846153846155" y="188.25" width="4.961538461538467" height="27.375" fill="#b8b1aa" rx="1" opacity="0.6"></rect><rect x="10" y="218.625" width="124.03846153846153" height="27.375" fill="#FF9101" rx="1" opacity="0.85"></rect><rect x="134.03846153846155" y="218.625" width="4.961538461538467" height="27.375" fill="#b8b1aa" rx="1" opacity="0.6"></rect><text x="74.5" y="268" text-anchor="middle" fill="#494949" font-size="8px">mu = 3,072  ·  1.04x pad</text><text x="74.5" y="282" text-anchor="middle" fill="#494949" font-size="8px">1,203 TFLOPS  (48.1% MFU)</text></g><g transform="translate(0, 294)"><rect x="0" y="-6" width="12" height="12" fill="#FF9101" rx="1" opacity="0.85"></rect><text x="16" y="4" fill="#494949" font-size="8px">Useful grouped work</text><rect x="150" y="-6" width="12" height="12" fill="#b8b1aa" rx="1" opacity="0.6"></rect><text x="166" y="4" fill="#494949" font-size="8px">Padding waste</text><text x="310" y="4" fill="#7c7c7c" font-size="8px">Each row = one local expert slot on one owner rank</text></g></g></svg>
