<svg xmlns="http://www.w3.org/2000/svg" width="640" height="470" viewBox="0 0 640 470" role="img">
<style>.t{font-family:GT America,ui-sans-serif,system-ui,-apple-system,Segoe UI,Roboto,Helvetica Neue,Arial,sans-serif;fill:#494949}.m{font-family:JetBrains Mono,ui-monospace,Menlo,Consolas,monospace;fill:#494949}.muted{fill:#7c7c7c}.axis{stroke:#6b6b6b;stroke-width:1}.grid{stroke:#b8b1aa;stroke-width:1;opacity:.35}.dotted{stroke-dasharray:4 4}</style>
<text x="320" y="24" font-size="18" text-anchor="middle" class="t">NVFP4: loss curves (same model, same tokens)</text>
<text x="320" y="46" font-size="13" text-anchor="middle" class="t muted">v2 spikes in warmdown; dither holds flip rate stable; v5 adds router fixes</text>
<line x1="64.0" y1="64" x2="64.0" y2="366" class="grid" />
<text x="64.0" y="388" font-size="12" text-anchor="middle" class="t muted">0</text>
<line x1="122.5" y1="64" x2="122.5" y2="366" class="grid" />
<text x="122.5" y="388" font-size="12" text-anchor="middle" class="t muted">1k</text>
<line x1="181.0" y1="64" x2="181.0" y2="366" class="grid" />
<text x="181.0" y="388" font-size="12" text-anchor="middle" class="t muted">2k</text>
<line x1="298.1" y1="64" x2="298.1" y2="366" class="grid" />
<text x="298.1" y="388" font-size="12" text-anchor="middle" class="t muted">4k</text>
<line x1="415.1" y1="64" x2="415.1" y2="366" class="grid" />
<text x="415.1" y="388" font-size="12" text-anchor="middle" class="t muted">6k</text>
<line x1="532.1" y1="64" x2="532.1" y2="366" class="grid" />
<text x="532.1" y="388" font-size="12" text-anchor="middle" class="t muted">8k</text>
<line x1="622.0" y1="64" x2="622.0" y2="366" class="grid" />
<text x="622.0" y="388" font-size="12" text-anchor="middle" class="t muted">9536</text>
<line x1="64" y1="307.1" x2="622" y2="307.1" class="grid" />
<text x="54" y="311.1" font-size="12" text-anchor="end" class="t muted">4</text>
<line x1="64" y1="233.4" x2="622" y2="233.4" class="grid" />
<text x="54" y="237.4" font-size="12" text-anchor="end" class="t muted">5</text>
<line x1="64" y1="159.8" x2="622" y2="159.8" class="grid" />
<text x="54" y="163.8" font-size="12" text-anchor="end" class="t muted">6</text>
<line x1="64" y1="86.1" x2="622" y2="86.1" class="grid" />
<text x="54" y="90.1" font-size="12" text-anchor="end" class="t muted">7</text>
<line x1="64" y1="366" x2="622" y2="366" class="axis" />
<line x1="64" y1="366" x2="64" y2="64" class="axis" />
<line x1="502.2" y1="64" x2="502.2" y2="366" class="grid dotted" />
<text x="508.2" y="78" font-size="12" text-anchor="start" class="t muted">warmdown</text>
<path d="M 71.5 84.4 L 79.0 165.5 L 86.5 206.3 L 94.0 230.5 L 101.4 246.1 L 108.9 258.2 L 116.4 268.5 L 123.9 276.7 L 131.4 283.2 L 138.9 287.9 L 146.4 291.8 L 153.9 295.2 L 161.4 298.3 L 168.9 300.7 L 176.3 302.7 L 183.8 304.7 L 191.3 306.7 L 198.8 308.2 L 206.3 309.7 L 213.8 311.0 L 221.3 312.0 L 228.8 313.6 L 236.3 314.3 L 243.8 315.9 L 251.2 317.1 L 258.7 318.0 L 266.2 318.9 L 273.7 320.3 L 281.2 321.4 L 288.7 322.2 L 296.2 322.7 L 303.7 324.1 L 311.2 324.5 L 318.7 325.3 L 326.1 326.2 L 333.6 327.2 L 341.1 328.0 L 348.6 328.9 L 356.1 329.4 L 363.6 330.4 L 371.1 331.1 L 378.6 331.8 L 386.1 332.4 L 393.6 333.0 L 401.0 333.6 L 408.5 334.3 L 416.0 334.9 L 423.5 335.3 L 431.0 336.0 L 438.5 336.6 L 446.0 337.4 L 453.5 338.0 L 461.0 338.7 L 468.5 339.0 L 475.9 339.5 L 483.4 339.9 L 490.9 340.5 L 498.4 340.8 L 505.9 341.4 L 513.4 341.9 L 520.9 342.3 L 528.4 343.1 L 535.9 343.7 L 543.4 344.8 L 550.8 345.8 L 558.3 346.5 L 565.8 347.2 L 573.3 347.9 L 580.8 348.3 L 588.3 348.6 L 595.8 348.8 L 603.3 348.9 L 610.8 348.9 L 618.3 348.9 L 622.0 348.9" stroke="#6b6b6b" stroke-width="2.6" fill="none" stroke-linecap="round" stroke-linejoin="round" />
<path d="M 71.5 83.7 L 79.0 164.4 L 86.5 203.9 L 94.0 228.3 L 101.4 244.4 L 108.9 256.0 L 116.4 266.4 L 123.9 274.6 L 131.4 281.0 L 138.9 285.6 L 146.4 289.0 L 153.9 292.4 L 161.4 295.1 L 168.9 297.2 L 176.3 297.9 L 183.8 300.1 L 191.3 301.8 L 198.8 303.1 L 206.3 303.8 L 213.8 305.1 L 221.3 305.2 L 228.8 306.4 L 236.3 306.3 L 243.8 307.0 L 251.2 308.0 L 258.7 308.2 L 266.2 307.9 L 273.7 307.5 L 281.2 308.6 L 288.7 308.6 L 296.2 308.3 L 303.7 310.0 L 311.2 306.8 L 318.7 309.5 L 326.1 308.9 L 333.6 309.5 L 341.1 310.6 L 348.6 309.9 L 356.1 308.2 L 363.6 310.7 L 371.1 311.0 L 378.6 298.3 L 386.1 305.8 L 393.6 308.8 L 401.0 309.1 L 408.5 307.6 L 416.0 309.0 L 423.5 302.1 L 431.0 289.4 L 438.5 307.0 L 446.0 303.9 L 453.5 306.0 L 461.0 304.9 L 468.5 295.0 L 475.9 307.9 L 483.4 304.2 L 490.9 304.8 L 498.4 304.6 L 505.9 302.1 L 513.4 304.9 L 520.9 306.9 L 528.4 303.0 L 535.9 306.4 L 543.4 310.3 L 550.8 311.9 L 558.3 310.0 L 565.8 315.4 L 573.3 316.8 L 580.8 318.0 L 588.3 318.6 L 595.8 319.2 L 603.3 319.5 L 610.8 319.5 L 618.3 297.7 L 622.0 304.5" stroke="#9a9a9a" stroke-width="2.6" fill="none" stroke-linecap="round" stroke-linejoin="round" stroke-dasharray="4 4" />
<path d="M 71.5 83.4 L 79.0 164.9 L 86.5 204.3 L 94.0 228.1 L 101.4 244.1 L 108.9 255.7 L 116.4 265.2 L 123.9 274.1 L 131.4 280.4 L 138.9 285.4 L 146.4 289.0 L 153.9 292.1 L 161.4 294.9 L 168.9 296.9 L 176.3 298.5 L 183.8 300.2 L 191.3 301.6 L 198.8 302.1 L 206.3 303.2 L 213.8 303.4 L 221.3 303.6 L 228.8 305.6 L 236.3 305.7 L 243.8 306.0 L 251.2 303.0 L 258.7 306.9 L 266.2 305.6 L 273.7 306.7 L 281.2 305.5 L 288.7 306.7 L 296.2 306.8 L 303.7 309.0 L 311.2 308.0 L 318.7 307.6 L 326.1 308.8 L 333.6 308.4 L 341.1 306.4 L 348.6 308.0 L 356.1 307.7 L 363.6 308.2 L 371.1 307.4 L 378.6 308.6 L 386.1 308.3 L 393.6 304.3 L 401.0 306.7 L 408.5 304.1 L 416.0 305.9 L 423.5 306.7 L 431.0 301.0 L 438.5 307.5 L 446.0 307.1 L 453.5 304.3 L 461.0 305.9 L 468.5 308.2 L 475.9 307.4 L 483.4 307.6 L 490.9 308.3 L 498.4 307.1 L 505.9 307.5 L 513.4 303.3 L 520.9 305.1 L 528.4 309.5 L 535.9 311.6 L 543.4 310.9 L 550.8 312.6 L 558.3 315.2 L 565.8 315.8 L 573.3 316.2 L 580.8 317.8 L 588.3 319.0 L 595.8 319.6 L 603.3 319.9 L 610.8 319.8 L 618.3 319.8 L 622.0 319.8" stroke="#FF9101" stroke-width="2.6" fill="none" stroke-linecap="round" stroke-linejoin="round" />
<path d="M 71.5 84.3 L 79.0 165.9 L 86.5 204.4 L 94.0 227.6 L 101.4 244.1 L 108.9 255.2 L 116.4 265.5 L 123.9 273.4 L 131.4 280.0 L 138.9 284.9 L 146.4 288.5 L 153.9 291.9 L 161.4 294.6 L 168.9 297.1 L 176.3 298.7 L 183.8 300.6 L 191.3 301.6 L 198.8 303.0 L 206.3 304.1 L 213.8 304.6 L 221.3 305.8 L 228.8 307.0 L 236.3 307.4 L 243.8 304.2 L 251.2 309.0 L 258.7 309.7 L 266.2 309.0 L 273.7 311.2 L 281.2 311.6 L 288.7 311.2 L 296.2 311.4 L 303.7 313.0 L 311.2 310.1 L 318.7 312.5 L 326.1 313.5 L 333.6 313.7 L 341.1 313.5 L 348.6 314.4 L 356.1 315.2 L 363.6 313.6 L 371.1 314.9 L 378.6 314.9 L 386.1 315.8 L 393.6 313.3 L 401.0 315.8 L 408.5 316.0 L 416.0 315.7 L 423.5 315.3 L 431.0 316.3 L 438.5 315.9 L 446.0 315.8 L 453.5 316.9 L 461.0 312.9 L 468.5 315.1 L 475.9 316.3 L 483.4 314.8 L 490.9 315.8 L 498.4 314.8 L 505.9 314.6 L 513.4 315.9 L 520.9 316.7 L 528.4 317.7 L 535.9 318.5 L 543.4 319.6 L 550.8 321.0 L 558.3 323.1 L 565.8 324.0 L 573.3 325.1 L 580.8 325.9 L 588.3 326.6 L 595.8 326.9 L 603.3 327.1 L 610.8 327.1 L 618.3 327.1 L 622.0 327.1" stroke="#2E7D32" stroke-width="2.6" fill="none" stroke-linecap="round" stroke-linejoin="round" />
<circle cx="618.3" cy="297.7" r="4" fill="#9a9a9a" />
<text x="612.3" y="289.7" font-size="12" text-anchor="end" class="t">spike</text>
<text x="343.0" y="406" font-size="13" text-anchor="middle" class="t">Step</text>
<text x="18" y="215.0" font-size="13" text-anchor="middle" class="t" transform="rotate(-90 18 215.0)">Validation loss</text>
<rect x="64" y="424" width="12" height="12" fill="#6b6b6b" />
<text x="80" y="434" font-size="12" text-anchor="start" class="t muted">bf16</text>
<rect x="340" y="424" width="12" height="12" fill="#9a9a9a" />
<text x="356" y="434" font-size="12" text-anchor="start" class="t muted">nvfp4 v2 (RTN-only)</text>
<rect x="64" y="440" width="12" height="12" fill="#FF9101" />
<text x="80" y="450" font-size="12" text-anchor="start" class="t muted">nvfp4 v3 (dither)</text>
<rect x="340" y="440" width="12" height="12" fill="#2E7D32" />
<text x="356" y="450" font-size="12" text-anchor="start" class="t muted">nvfp4 v5 (dither + router fixes)</text>
</svg>
